<?xml version="1.0" encoding="UTF-8"?> <svg xmlns="http://www.w3.org/2000/svg" viewBox="0 0 80 80"><defs><style>.cls-1,.cls-5{fill:none;}.cls-2,.cls-4{fill:#fff;}.cls-2,.cls-5{stroke:#333;stroke-linecap:round;stroke-linejoin:round;stroke-width:2px;}.cls-3{fill:#d4ead8;}.cls-6{fill:#34a551;}</style></defs><title>malware</title><g id="malware"><rect class="cls-1" width="80" height="80"></rect><circle class="cls-2" cx="40" cy="40" r="38"></circle><path class="cls-2" d="M58.67,47.11a19.71,19.71,0,0,0,0-14.21L65,25,54.89,26.68a19.94,19.94,0,0,0-10.84-6.27L40,10,36,20.41a19.94,19.94,0,0,0-10.84,6.27L15,25l6.32,7.9a19.71,19.71,0,0,0,0,14.21L15,55l10.14-1.69a19.88,19.88,0,0,0,10.79,6.23L40,70l4.07-10.42a19.88,19.88,0,0,0,10.79-6.23L65,55Z"></path><circle class="cls-3" cx="40" cy="40" r="14"></circle><line class="cls-2" x1="26.61" y1="17.71" x2="29" y2="22"></line><line class="cls-2" x1="51" y1="22" x2="53.39" y2="17.71"></line><line class="cls-2" x1="60" y1="40" x2="66" y2="40"></line><line class="cls-2" x1="14" y1="40" x2="20" y2="40"></line><line class="cls-2" x1="26" y1="62" x2="29" y2="58"></line><line class="cls-2" x1="51" y1="58" x2="54" y2="62"></line><path class="cls-4" d="M38.2,41a6,6,0,1,1-10.4-6Z"></path><path class="cls-4" d="M52.2,35a6,6,0,1,1-10.4,6Z"></path><path class="cls-5" d="M38.2,41a6,6,0,1,1-10.4-6Z"></path><path class="cls-5" d="M52.2,35a6,6,0,1,1-10.4,6Z"></path><circle class="cls-6" cx="33.5" cy="28.5" r="2.5"></circle></g></svg> 